<svg width="20" height="20" viewBox="0 0 20 20" fill="none" xmlns="http://www.w3.org/2000/svg">
<path d="M13.75 1.66675C11.45 1.66675 9.58333 3.53341 9.58333 5.83342C9.58333 8.13342 11.45 10.0001 13.75 10.0001C16.05 10.0001 17.9167 8.13342 17.9167 5.83342C17.9167 3.53341 16.05 1.66675 13.75 1.66675ZM13.75 8.33342C12.3667 8.33342 11.25 7.21675 11.25 5.83342C11.25 4.45008 12.3667 3.33341 13.75 3.33341C15.1333 3.33341 16.25 4.45008 16.25 5.83342C16.25 7.21675 15.1333 8.33342 13.75 8.33342ZM16.25 13.3334H15.0833C14.8072 13.3334 14.5886 13.1071 14.5313 12.837C14.3632 12.0448 13.8005 11.3742 13.025 11.0834L7.97626 9.19833C7.92032 9.17745 7.86108 9.16675 7.80137 9.16675H1.75C1.47386 9.16675 1.25 9.39061 1.25 9.66675V17.8334C1.25 18.1096 1.47386 18.3334 1.75 18.3334H5.75C6.02614 18.3334 6.25 18.1096 6.25 17.8334V17.7908C6.25 17.4603 6.56501 17.2207 6.88354 17.309L11.9413 18.7107C12.034 18.7364 12.1322 18.7348 12.224 18.7061L18.3991 16.7764C18.6079 16.7112 18.75 16.5178 18.75 16.2992V15.8334C18.75 14.4501 17.6333 13.3334 16.25 13.3334ZM4.58333 16.1667C4.58333 16.4429 4.35948 16.6667 4.08333 16.6667H3.41667C3.14052 16.6667 2.91667 16.4429 2.91667 16.1667V11.3334C2.91667 11.0573 3.14052 10.8334 3.41667 10.8334H4.08333C4.35948 10.8334 4.58333 11.0573 4.58333 11.3334V16.1667ZM12.1978 16.9651C12.1067 16.9934 12.0095 16.995 11.9175 16.9698L6.61786 15.5176C6.40061 15.458 6.25 15.2606 6.25 15.0353V11.3334C6.25 11.0573 6.47386 10.8334 6.75 10.8334H7.50149C7.56112 10.8334 7.62028 10.8441 7.67616 10.8649L12.4417 12.6417C12.5624 12.6879 12.6665 12.7643 12.7462 12.8607C12.9253 13.0772 12.6855 13.3275 12.4047 13.3169C11.8927 13.2976 11.1592 13.2615 11 13.2084L9.49136 12.7076C9.22922 12.6206 8.94618 12.7627 8.85925 13.0248L8.64898 13.659C8.56209 13.921 8.70403 14.2039 8.96606 14.2909L10.475 14.7917C10.9 14.9334 11.3417 15.0001 11.7917 15.0001H16.25C16.3707 15.0001 16.4868 15.0277 16.5919 15.0764C16.8695 15.2053 16.7368 15.5567 16.4445 15.6474L12.1978 16.9651Z" fill="#555755"/>
</svg>
