<svg width="22" height="22" viewBox="0 0 22 22" fill="none" xmlns="http://www.w3.org/2000/svg">
<path d="M14.8962 2.521H7.10449C5.58571 2.521 4.35449 3.75221 4.35449 5.271V16.7293C4.35449 18.2481 5.58571 19.4793 7.10449 19.4793H14.8962C16.4149 19.4793 17.6462 18.2481 17.6462 16.7293V5.271C17.6462 3.75221 16.4149 2.521 14.8962 2.521Z" stroke="#979996" stroke-width="2" stroke-linecap="round" stroke-linejoin="round"/>
<path d="M13.5208 5.72949H8.47917C7.97291 5.72949 7.5625 6.1399 7.5625 6.64616V8.25033C7.5625 8.75659 7.97291 9.16699 8.47917 9.16699H13.5208C14.0271 9.16699 14.4375 8.75659 14.4375 8.25033V6.64616C14.4375 6.1399 14.0271 5.72949 13.5208 5.72949Z" stroke="#979996" stroke-width="2" stroke-linecap="round" stroke-linejoin="round"/>
<path d="M7.79167 13.2918C8.29793 13.2918 8.70833 12.8814 8.70833 12.3752C8.70833 11.8689 8.29793 11.4585 7.79167 11.4585C7.28541 11.4585 6.875 11.8689 6.875 12.3752C6.875 12.8814 7.28541 13.2918 7.79167 13.2918Z" fill="#979996"/>
<path d="M11.0007 13.2918C11.5069 13.2918 11.9173 12.8814 11.9173 12.3752C11.9173 11.8689 11.5069 11.4585 11.0007 11.4585C10.4944 11.4585 10.084 11.8689 10.084 12.3752C10.084 12.8814 10.4944 13.2918 11.0007 13.2918Z" fill="#979996"/>
<path d="M14.2087 13.2918C14.7149 13.2918 15.1253 12.8814 15.1253 12.3752C15.1253 11.8689 14.7149 11.4585 14.2087 11.4585C13.7024 11.4585 13.292 11.8689 13.292 12.3752C13.292 12.8814 13.7024 13.2918 14.2087 13.2918Z" fill="#979996"/>
<path d="M7.79167 16.9583C8.29793 16.9583 8.70833 16.5479 8.70833 16.0417C8.70833 15.5354 8.29793 15.125 7.79167 15.125C7.28541 15.125 6.875 15.5354 6.875 16.0417C6.875 16.5479 7.28541 16.9583 7.79167 16.9583Z" fill="#979996"/>
<path d="M11.0007 16.9583C11.5069 16.9583 11.9173 16.5479 11.9173 16.0417C11.9173 15.5354 11.5069 15.125 11.0007 15.125C10.4944 15.125 10.084 15.5354 10.084 16.0417C10.084 16.5479 10.4944 16.9583 11.0007 16.9583Z" fill="#979996"/>
<path d="M14.2087 16.9583C14.7149 16.9583 15.1253 16.5479 15.1253 16.0417C15.1253 15.5354 14.7149 15.125 14.2087 15.125C13.7024 15.125 13.292 15.5354 13.292 16.0417C13.292 16.5479 13.7024 16.9583 14.2087 16.9583Z" fill="#979996"/>
</svg>
