<svg width="20" height="20" viewBox="0 0 20 20" fill="none" xmlns="http://www.w3.org/2000/svg">
<path d="M8.1367 2.22952C9.17228 1.25722 10.8266 1.25741 11.8623 2.22952L16.6191 6.69437L18.1845 8.16409C18.5872 8.54212 18.6065 9.17552 18.2285 9.57815C18.0729 9.74364 17.8739 9.843 17.666 9.87796V15.1524C17.666 17.0594 16.0386 18.5 14.166 18.5H5.83298C3.96052 18.4998 2.33301 17.0593 2.33298 15.1524V9.87796C2.12538 9.84283 1.92676 9.74341 1.77146 9.57815C1.3936 9.17561 1.41304 8.54213 1.81541 8.16409L3.38084 6.69437L8.1367 2.22952ZM10.4941 3.68753C10.228 3.43786 9.77185 3.43777 9.50584 3.68753L4.74998 8.15237C4.47515 8.41058 4.33308 8.74723 4.33298 9.08304V15.1524C4.33301 15.8378 4.94447 16.4998 5.83298 16.5H14.166C15.0547 16.5 15.666 15.8379 15.666 15.1524V9.08304C15.6659 8.74692 15.5249 8.41051 15.25 8.15237L10.4941 3.68753ZM10.667 11.667C11.2191 11.6672 11.667 12.1148 11.667 12.667V14C11.6669 14.5522 11.2191 14.9999 10.667 15H9.33298C8.7809 14.9998 8.33301 14.5522 8.33298 14V12.667C8.33298 12.1149 8.78088 11.6672 9.33298 11.667H10.667Z" fill="#555755"/>
</svg>
