<svg width="20" height="20" viewBox="0 0 20 20" fill="none" xmlns="http://www.w3.org/2000/svg">
<path d="M3.33366 18.3334C2.87533 18.3334 2.4831 18.1704 2.15699 17.8442C1.83088 17.5181 1.66755 17.1256 1.66699 16.6667V9.41675C1.66699 9.08341 1.75727 8.77786 1.93783 8.50008C2.11838 8.2223 2.36838 8.01397 2.68783 7.87508L6.33366 6.33341C6.61144 6.2223 6.87533 6.24314 7.12533 6.39591C7.37533 6.54869 7.50033 6.77786 7.50033 7.08341V7.50008L10.5212 6.29175C10.7989 6.18064 11.0592 6.20841 11.302 6.37508C11.5448 6.54175 11.6664 6.77092 11.667 7.06258V8.33341H18.3337V16.6667C18.3337 17.1251 18.1706 17.5176 17.8445 17.8442C17.5184 18.1709 17.1259 18.334 16.667 18.3334H3.33366ZM3.33366 16.6667H16.667V10.0001H10.0003V8.29175L5.83366 9.95841V8.33341L3.33366 9.43758V16.6667ZM9.16699 15.0001H10.8337V11.6667H9.16699V15.0001ZM5.83366 15.0001H7.50033V11.6667H5.83366V15.0001ZM12.5003 15.0001H14.167V11.6667H12.5003V15.0001ZM18.3337 8.33341H14.167L14.917 2.39591C14.9448 2.18758 15.035 2.01397 15.1878 1.87508C15.3406 1.73619 15.5212 1.66675 15.7295 1.66675H16.7712C16.9795 1.66675 17.16 1.73619 17.3128 1.87508C17.4656 2.01397 17.5559 2.18758 17.5837 2.39591L18.3337 8.33341Z" fill="#555755"/>
</svg>
