<svg width="17" height="21" viewBox="0 0 17 21" fill="none" xmlns="http://www.w3.org/2000/svg">
<path d="M6.5 1H10.1667M6.5 18.6331C6.98653 19.0685 7.62901 19.3333 8.33333 19.3333C9.03766 19.3333 9.68014 19.0685 10.1667 18.6331M1.99452 16.125C1.25616 16.125 0.775938 15.429 1.10614 14.8374L2.31855 12.6653C3.00813 11.4299 3.36714 10.0677 3.36714 8.68645V8.11765C3.36714 6.60809 4.20654 5.27414 5.49005 4.4699C5.55105 4.43167 5.61306 4.39464 5.67603 4.35885C6.44443 3.92206 7.35591 3.66912 8.33333 3.66912C9.31076 3.66912 10.2222 3.92206 10.9906 4.35885C11.0536 4.39464 11.1156 4.43167 11.1766 4.4699C12.4601 5.27414 13.2995 6.60809 13.2995 8.11765V8.68645C13.2995 10.0677 13.6585 11.4299 14.3481 12.6653L15.5605 14.8374C15.8907 15.429 15.4105 16.125 14.6721 16.125H11.0833H5.58333H1.99452Z" stroke="#979996" stroke-width="2" stroke-linecap="round"/>
</svg>
