<svg width="22" height="22" viewBox="0 0 22 22" fill="none" xmlns="http://www.w3.org/2000/svg">
<path d="M6.41667 15.5833V13.75C6.41667 13.2638 6.60982 12.7975 6.95364 12.4536C7.29745 12.1098 7.76377 11.9167 8.25 11.9167H13.75C14.2362 11.9167 14.7025 12.1098 15.0464 12.4536C15.3902 12.7975 15.5833 13.2638 15.5833 13.75V15.5833M6.41667 15.5833V17.4167C6.41667 17.9029 6.60982 18.3692 6.95364 18.713C7.29745 19.0568 7.76377 19.25 8.25 19.25H13.75C14.2362 19.25 14.7025 19.0568 15.0464 18.713C15.3902 18.3692 15.5833 17.9029 15.5833 17.4167V15.5833M6.41667 15.5833H4.58333C4.0971 15.5833 3.63079 15.3902 3.28697 15.0464C2.94315 14.7025 2.75 14.2362 2.75 13.75V8.25C2.75 7.76377 2.94315 7.29745 3.28697 6.95364C3.63079 6.60982 4.0971 6.41667 4.58333 6.41667H5.5M15.5833 15.5833H17.4167C17.9029 15.5833 18.3692 15.3902 18.713 15.0464C19.0568 14.7025 19.25 14.2362 19.25 13.75V8.25C19.25 7.76377 19.0568 7.29745 18.713 6.95364C18.3692 6.60982 17.9029 6.41667 17.4167 6.41667H16.5M5.5 6.41667V4.58333C5.5 4.0971 5.69315 3.63079 6.03697 3.28697C6.38079 2.94315 6.8471 2.75 7.33333 2.75H14.6667C15.1529 2.75 15.6192 2.94315 15.963 3.28697C16.3068 3.63079 16.5 4.0971 16.5 4.58333V6.41667M5.5 6.41667H16.5M6.41667 9.16667H7.33333" stroke="#979996" stroke-width="2" stroke-linecap="round" stroke-linejoin="round"/>
</svg>
