<svg width="20" height="20" viewBox="0 0 20 20" fill="none" xmlns="http://www.w3.org/2000/svg">
<path d="M12.5 10.8334L9 14.1667L7.5 12.831" stroke="#555755" stroke-width="2" stroke-linecap="round" stroke-linejoin="round"/>
<path d="M6.04167 6.79483V5.51278C6.04167 4.49272 6.41481 3.51443 7.079 2.79314C7.74319 2.07184 8.64403 1.66663 9.58333 1.66663C10.5226 1.66663 11.4235 2.07184 12.0877 2.79314C12.7519 3.51443 13.125 4.49272 13.125 5.51278V6.79483M3.09028 6.79483C2.93373 6.79483 2.78359 6.86237 2.67289 6.98258C2.56219 7.1028 2.5 7.26585 2.5 7.43586V16.0897C2.5 17.3012 3.45035 18.3333 4.56597 18.3333H14.6007C15.7163 18.3333 16.6667 17.3513 16.6667 16.1398V7.43586C16.6667 7.26585 16.6045 7.1028 16.4938 6.98258C16.3831 6.86237 16.2329 6.79483 16.0764 6.79483H3.09028Z" stroke="#555755" stroke-width="2" stroke-linecap="round" stroke-linejoin="round"/>
</svg>
