<svg width="20" height="20" viewBox="0 0 20 20" fill="none" xmlns="http://www.w3.org/2000/svg">
<path d="M12.5762 0.733765C12.6786 0.733707 12.7803 0.752729 12.875 0.791382C12.9223 0.810669 12.9674 0.834787 13.0098 0.862671L13.1289 0.959351L16.5381 4.32458C16.6106 4.39631 16.6677 4.48174 16.707 4.57556C16.7463 4.66936 16.7666 4.76988 16.7666 4.87146V14.2953C16.7665 14.6791 16.6123 15.0467 16.3379 15.3177C16.0634 15.5887 15.6914 15.7405 15.3037 15.7406H14.04V16.9877C14.0399 17.3715 13.8849 17.7391 13.6104 18.0101C13.3358 18.2811 12.9639 18.433 12.5762 18.433H3.03027C2.64263 18.4329 2.27059 18.2811 1.99609 18.0101C1.72163 17.7391 1.5675 17.3714 1.56738 16.9877V4.87146C1.56748 4.48769 1.72164 4.12 1.99609 3.849C2.27059 3.57802 2.64263 3.42624 3.03027 3.42615H4.29395V2.17908C4.29407 1.79528 4.44912 1.42761 4.72363 1.15662C4.99819 0.885605 5.3701 0.733788 5.75781 0.733765H12.5762ZM3.13086 16.8871H12.4766V7.88416L9.52539 4.97205H3.13086V16.8871ZM9.84863 13.5219C10.0555 13.5219 10.2547 13.6027 10.4014 13.7474C10.5481 13.8923 10.6309 14.0898 10.6309 14.2953C10.6308 14.5006 10.548 14.6974 10.4014 14.8422C10.2547 14.987 10.0556 15.0677 9.84863 15.0677H5.75781C5.55091 15.0677 5.35177 14.987 5.20508 14.8422C5.05851 14.6974 4.97666 14.5005 4.97656 14.2953C4.97656 14.0899 5.05835 13.8923 5.20508 13.7474C5.35177 13.6026 5.55091 13.5219 5.75781 13.5219H9.84863ZM5.85742 3.42615H9.84863C9.95105 3.42607 10.0527 3.44515 10.1475 3.48376C10.2423 3.52246 10.3287 3.58003 10.4014 3.65173L13.8105 7.01697L13.8623 7.07263C13.9111 7.13137 13.9509 7.1974 13.9805 7.26794C14.0197 7.36172 14.0401 7.46231 14.04 7.56384V14.1947H15.2031V5.1908L12.2529 2.27966H5.85742V3.42615ZM9.84863 10.8295C10.0555 10.8295 10.2547 10.9103 10.4014 11.0551C10.5481 11.1999 10.6309 11.3975 10.6309 11.6029C10.6308 11.8082 10.548 12.005 10.4014 12.1498C10.2547 12.2946 10.0556 12.3754 9.84863 12.3754H5.75781C5.55091 12.3753 5.35177 12.2946 5.20508 12.1498C5.05851 12.005 4.97664 11.8082 4.97656 11.6029C4.97656 11.3975 5.05832 11.1999 5.20508 11.0551C5.35177 10.9102 5.55091 10.8295 5.75781 10.8295H9.84863Z" fill="#555755" stroke="#555755" stroke-width="0.2"/>
</svg>
