<svg width="20" height="20" viewBox="0 0 20 20" fill="none" xmlns="http://www.w3.org/2000/svg">
<path d="M16.25 8.75V16.25C16.25 16.6383 16.25 16.8325 16.1867 16.9858C16.1019 17.1896 15.9398 17.3515 15.7358 17.4358C15.5825 17.5 15.3883 17.5 15 17.5C14.6117 17.5 14.4175 17.5 14.2642 17.4367C14.0604 17.3519 13.8985 17.1898 13.8142 16.9858C13.75 16.8325 13.75 16.6383 13.75 16.25V8.75C13.75 8.36167 13.75 8.1675 13.8133 8.01417C13.8981 7.81038 14.0602 7.64855 14.2642 7.56417C14.4175 7.5 14.6117 7.5 15 7.5C15.3883 7.5 15.5825 7.5 15.7358 7.56333C15.9396 7.64809 16.1015 7.81023 16.1858 8.01417C16.25 8.1675 16.25 8.36167 16.25 8.75Z" stroke="#555755" stroke-width="1.5" stroke-linejoin="round"/>
<path d="M13.75 2.5H16.25V5" stroke="#555755" stroke-width="2" stroke-linecap="round" stroke-linejoin="round"/>
<path d="M15.8333 2.91675C15.8333 2.91675 12.5 7.08341 3.75 10.0001" stroke="#555755" stroke-width="2" stroke-linecap="round" stroke-linejoin="round"/>
<path d="M10.4163 11.6667V16.2501C10.4163 16.6384 10.4163 16.8326 10.353 16.9859C10.2682 17.1897 10.1061 17.3515 9.90217 17.4359C9.74884 17.5001 9.55467 17.5001 9.16634 17.5001C8.77801 17.5001 8.58384 17.5001 8.43051 17.4367C8.22672 17.352 8.06489 17.1899 7.98051 16.9859C7.91634 16.8326 7.91634 16.6384 7.91634 16.2501V11.6667C7.91634 11.2784 7.91634 11.0842 7.97967 10.9309C8.06443 10.7271 8.22657 10.5653 8.43051 10.4809C8.58384 10.4167 8.77801 10.4167 9.16634 10.4167C9.55467 10.4167 9.74884 10.4167 9.90217 10.4801C10.106 10.5648 10.2678 10.727 10.3522 10.9309C10.4163 11.0842 10.4163 11.2784 10.4163 11.6667ZM4.58301 13.7501V16.2501C4.58301 16.6384 4.58301 16.8326 4.51967 16.9859C4.43492 17.1897 4.27278 17.3515 4.06884 17.4359C3.91551 17.5001 3.72134 17.5001 3.33301 17.5001C2.94467 17.5001 2.75051 17.5001 2.59717 17.4367C2.39339 17.352 2.23155 17.1899 2.14717 16.9859C2.08301 16.8326 2.08301 16.6384 2.08301 16.2501V13.7501C2.08301 13.3617 2.08301 13.1676 2.14634 13.0142C2.2311 12.8105 2.39324 12.6486 2.59717 12.5642C2.75051 12.5001 2.94467 12.5001 3.33301 12.5001C3.72134 12.5001 3.91551 12.5001 4.06884 12.5634C4.27262 12.6482 4.43446 12.8103 4.51884 13.0142C4.58301 13.1676 4.58301 13.3617 4.58301 13.7501Z" stroke="#555755" stroke-width="1.5" stroke-linejoin="round"/>
</svg>
