<svg width="20" height="20" viewBox="0 0 20 20" fill="none" xmlns="http://www.w3.org/2000/svg">
<path d="M14.12 16.6667H17.8237C18.0693 16.6667 18.3048 16.5664 18.4785 16.3878C18.6521 16.2092 18.7497 15.9669 18.7497 15.7143V14.7619C18.7497 14.0042 18.457 13.2775 17.9361 12.7416C17.4151 12.2058 16.7086 11.9048 15.9719 11.9048H14.12M12.0497 8.09528C12.4247 8.52657 12.9182 8.83057 13.4649 8.96705C14.0116 9.10353 14.5857 9.06605 15.1113 8.85958C15.6368 8.65311 16.089 8.28737 16.408 7.81077C16.7271 7.33417 16.8979 6.76916 16.8979 6.19052C16.8979 5.61187 16.7271 5.04687 16.408 4.57027C16.089 4.09366 15.6368 3.72793 15.1113 3.52145C14.5857 3.31498 14.0116 3.2775 13.4649 3.41398C12.9182 3.55046 12.4247 3.85446 12.0497 4.28576M2.08301 15.7143V14.7619C2.08301 14.0042 2.37567 13.2775 2.8966 12.7416C3.41753 12.2058 4.12407 11.9048 4.86079 11.9048H8.56449C9.3012 11.9048 10.0077 12.2058 10.5287 12.7416C11.0496 13.2775 11.3423 14.0042 11.3423 14.7619V15.7143C11.3423 15.9669 11.2447 16.2092 11.0711 16.3878C10.8974 16.5664 10.6619 16.6667 10.4163 16.6667H3.00893C2.76336 16.6667 2.52785 16.5664 2.35421 16.3878C2.18056 16.2092 2.08301 15.9669 2.08301 15.7143ZM9.49042 6.19052C9.49042 6.94828 9.19776 7.675 8.67682 8.21082C8.15589 8.74664 7.44935 9.04766 6.71264 9.04766C5.97592 9.04766 5.26939 8.74664 4.74845 8.21082C4.22752 7.675 3.93486 6.94828 3.93486 6.19052C3.93486 5.43276 4.22752 4.70603 4.74845 4.17021C5.26939 3.63439 5.97592 3.33337 6.71264 3.33337C7.44935 3.33337 8.15589 3.63439 8.67682 4.17021C9.19776 4.70603 9.49042 5.43276 9.49042 6.19052Z" stroke="#555755" stroke-width="2" stroke-linecap="round"/>
</svg>
