<svg width="20" height="20" viewBox="0 0 20 20" fill="none" xmlns="http://www.w3.org/2000/svg">
<path d="M17.5 9.16667H15.4167M13.3333 9.16667H15.4167M15.4167 9.16667V7.08333M15.4167 9.16667V11.25M6.66667 11.6667H10C12.3012 11.6667 14.1667 13.5321 14.1667 15.8333V16.6667C14.1667 17.1269 13.7936 17.5 13.3333 17.5H3.33333C2.8731 17.5 2.5 17.1269 2.5 16.6667V15.8333C2.5 13.5321 4.36548 11.6667 6.66667 11.6667ZM11.6667 5.83333C11.6667 7.67428 10.1743 9.16667 8.33333 9.16667C6.49238 9.16667 5 7.67428 5 5.83333C5 3.99238 6.49238 2.5 8.33333 2.5C10.1743 2.5 11.6667 3.99238 11.6667 5.83333Z" stroke="#646663" stroke-width="2" stroke-linecap="round" stroke-linejoin="round"/>
</svg>
